<svg width="20" height="20" viewBox="0 0 20 20" fill="none" xmlns="http://www.w3.org/2000/svg">
<mask id="mask0_4661_40747" style="mask-type:alpha" maskUnits="userSpaceOnUse" x="0" y="0" width="20" height="20">
<rect width="20" height="20" transform="matrix(-1 0 0 1 20 0)" fill="#D9D9D9"/>
</mask>
<g mask="url(#mask0_4661_40747)">
<path d="M9.26941 17.2694V16.5388C7.74734 16.3683 6.4414 15.7382 5.3516 14.6484C4.2618 13.5586 3.63166 12.2527 3.46119 10.7306H2.73059C2.52359 10.7306 2.35008 10.6606 2.21005 10.5205C2.07002 10.3805 2 10.207 2 10C2 9.793 2.07002 9.61948 2.21005 9.47945C2.35008 9.33942 2.52359 9.26941 2.73059 9.26941H3.46119C3.63166 7.74734 4.2618 6.4414 5.3516 5.3516C6.4414 4.2618 7.74734 3.63166 9.26941 3.46119V2.73059C9.26941 2.52359 9.33942 2.35008 9.47945 2.21005C9.61948 2.07002 9.793 2 10 2C10.207 2 10.3805 2.07002 10.5205 2.21005C10.6606 2.35008 10.7306 2.52359 10.7306 2.73059V3.46119C12.2527 3.63166 13.5586 4.2618 14.6484 5.3516C15.7382 6.4414 16.3683 7.74734 16.5388 9.26941H17.2694C17.4764 9.26941 17.6499 9.33942 17.79 9.47945C17.93 9.61948 18 9.793 18 10C18 10.207 17.93 10.3805 17.79 10.5205C17.6499 10.6606 17.4764 10.7306 17.2694 10.7306H16.5388C16.3683 12.2527 15.7382 13.5586 14.6484 14.6484C13.5586 15.7382 12.2527 16.3683 10.7306 16.5388V17.2694C10.7306 17.4764 10.6606 17.6499 10.5205 17.79C10.3805 17.93 10.207 18 10 18C9.793 18 9.61948 17.93 9.47945 17.79C9.33942 17.6499 9.26941 17.4764 9.26941 17.2694ZM13.6164 13.6164C14.6149 12.618 15.1142 11.4125 15.1142 10C15.1142 8.58752 14.6149 7.38204 13.6164 6.38356C12.618 5.38508 11.4125 4.88584 10 4.88584C8.58752 4.88584 7.38204 5.38508 6.38356 6.38356C5.38508 7.38204 4.88584 8.58752 4.88584 10C4.88584 11.4125 5.38508 12.618 6.38356 13.6164C7.38204 14.6149 8.58752 15.1142 10 15.1142C11.4125 15.1142 12.618 14.6149 13.6164 13.6164ZM7.93607 12.0639C7.36377 11.4916 7.07763 10.8037 7.07763 10C7.07763 9.19635 7.36377 8.50837 7.93607 7.93607C8.50837 7.36377 9.19635 7.07763 10 7.07763C10.8037 7.07763 11.4916 7.36377 12.0639 7.93607C12.6362 8.50837 12.9224 9.19635 12.9224 10C12.9224 10.8037 12.6362 11.4916 12.0639 12.0639C11.4916 12.6362 10.8037 12.9224 10 12.9224C9.19635 12.9224 8.50837 12.6362 7.93607 12.0639Z" fill="#1C1B1F"/>
</g>
</svg>
