<?xml version="1.0" encoding="UTF-8" standalone="no"?>
<!DOCTYPE svg PUBLIC "-//W3C//DTD SVG 1.1//EN"
 "http://www.w3.org/Graphics/SVG/1.1/DTD/svg11.dtd">
<!-- Generated by graphviz version 12.2.1 (20241206.2353)
 -->
<!-- Title: findColor Pages: 1 -->
<svg width="2719pt" height="566pt"
 viewBox="0.00 0.00 2719.23 565.80" xmlns="http://www.w3.org/2000/svg" xmlns:xlink="http://www.w3.org/1999/xlink">
<g id="graph0" class="graph" transform="scale(1 1) rotate(0) translate(50.4 515.4)">
<title>findColor</title>
<polygon fill="#f0f2f5" stroke="none" points="-50.4,50.4 -50.4,-515.4 2668.83,-515.4 2668.83,50.4 -50.4,50.4"/>
<g id="clust1" class="cluster">
<title>cluster_fe</title>
<path fill="#e8f0fe" stroke="#1a73e8" d="M20,-8C20,-8 557.54,-8 557.54,-8 563.54,-8 569.54,-14 569.54,-20 569.54,-20 569.54,-231 569.54,-231 569.54,-237 563.54,-243 557.54,-243 557.54,-243 20,-243 20,-243 14,-243 8,-237 8,-231 8,-231 8,-20 8,-20 8,-14 14,-8 20,-8"/>
<text text-anchor="middle" x="288.77" y="-227.6" font-family="Helvetica Neue Bold" font-size="12.00">Frontend &#160;· &#160;React 19 + TypeScript</text>
</g>
<g id="clust2" class="cluster">
<title>cluster_be</title>
<path fill="#eaf7ef" stroke="#1e8449" d="M721.29,-10C721.29,-10 2198.55,-10 2198.55,-10 2204.55,-10 2210.55,-16 2210.55,-22 2210.55,-22 2210.55,-445 2210.55,-445 2210.55,-451 2204.55,-457 2198.55,-457 2198.55,-457 721.29,-457 721.29,-457 715.29,-457 709.29,-451 709.29,-445 709.29,-445 709.29,-22 709.29,-22 709.29,-16 715.29,-10 721.29,-10"/>
<text text-anchor="middle" x="1459.92" y="-441.6" font-family="Helvetica Neue Bold" font-size="12.00">Backend &#160;· &#160;Spring Boot 3.4</text>
</g>
<g id="clust3" class="cluster">
<title>cluster_sec</title>
<path fill="#c8f0d8" stroke="#27ae60" d="M737.29,-94C737.29,-94 860.22,-94 860.22,-94 866.22,-94 872.22,-100 872.22,-106 872.22,-106 872.22,-226 872.22,-226 872.22,-232 866.22,-238 860.22,-238 860.22,-238 737.29,-238 737.29,-238 731.29,-238 725.29,-232 725.29,-226 725.29,-226 725.29,-106 725.29,-106 725.29,-100 731.29,-94 737.29,-94"/>
<text text-anchor="middle" x="798.76" y="-224.5" font-family="Helvetica Neue Bold" font-size="10.00">Security</text>
</g>
<g id="clust4" class="cluster">
<title>cluster_ctl</title>
<path fill="#c8f0d8" stroke="#27ae60" d="M959.22,-26C959.22,-26 1092.65,-26 1092.65,-26 1098.65,-26 1104.65,-32 1104.65,-38 1104.65,-38 1104.65,-226 1104.65,-226 1104.65,-232 1098.65,-238 1092.65,-238 1092.65,-238 959.22,-238 959.22,-238 953.22,-238 947.22,-232 947.22,-226 947.22,-226 947.22,-38 947.22,-38 947.22,-32 953.22,-26 959.22,-26"/>
<text text-anchor="middle" x="1025.94" y="-224.5" font-family="Helvetica Neue Bold" font-size="10.00">Controller</text>
</g>
<g id="clust5" class="cluster">
<title>cluster_svc</title>
<path fill="#c8f0d8" stroke="#27ae60" d="M1191.65,-26C1191.65,-26 1494.14,-26 1494.14,-26 1500.14,-26 1506.14,-32 1506.14,-38 1506.14,-38 1506.14,-230 1506.14,-230 1506.14,-236 1500.14,-242 1494.14,-242 1494.14,-242 1191.65,-242 1191.65,-242 1185.65,-242 1179.65,-236 1179.65,-230 1179.65,-230 1179.65,-38 1179.65,-38 1179.65,-32 1185.65,-26 1191.65,-26"/>
<text text-anchor="middle" x="1342.89" y="-228.5" font-family="Helvetica Neue Bold" font-size="10.00">Service</text>
</g>
<g id="clust6" class="cluster">
<title>cluster_core</title>
<path fill="#fef0e0" stroke="#e67e22" d="M1413.58,-258C1413.58,-258 1891.12,-258 1891.12,-258 1897.12,-258 1903.12,-264 1903.12,-270 1903.12,-270 1903.12,-326 1903.12,-326 1903.12,-332 1897.12,-338 1891.12,-338 1891.12,-338 1413.58,-338 1413.58,-338 1407.58,-338 1401.58,-332 1401.58,-326 1401.58,-326 1401.58,-270 1401.58,-270 1401.58,-264 1407.58,-258 1413.58,-258"/>
<text text-anchor="middle" x="1652.35" y="-324.5" font-family="Helvetica Neue Bold" font-size="10.00">Color Analysis Core</text>
</g>
<g id="clust7" class="cluster">
<title>cluster_repo</title>
<path fill="#c8f0d8" stroke="#27ae60" d="M2031.87,-124C2031.87,-124 2182.55,-124 2182.55,-124 2188.55,-124 2194.55,-130 2194.55,-136 2194.55,-136 2194.55,-392 2194.55,-392 2194.55,-398 2188.55,-404 2182.55,-404 2182.55,-404 2031.87,-404 2031.87,-404 2025.87,-404 2019.87,-398 2019.87,-392 2019.87,-392 2019.87,-136 2019.87,-136 2019.87,-130 2025.87,-124 2031.87,-124"/>
<text text-anchor="middle" x="2107.21" y="-390.5" font-family="Helvetica Neue Bold" font-size="10.00">Repository</text>
</g>
<g id="clust8" class="cluster">
<title>cluster_infra</title>
<path fill="#f4ecf7" stroke="#7d3c98" d="M2271.55,-117C2271.55,-117 2598.43,-117 2598.43,-117 2604.43,-117 2610.43,-123 2610.43,-129 2610.43,-129 2610.43,-312 2610.43,-312 2610.43,-318 2604.43,-324 2598.43,-324 2598.43,-324 2271.55,-324 2271.55,-324 2265.55,-324 2259.55,-318 2259.55,-312 2259.55,-312 2259.55,-129 2259.55,-129 2259.55,-123 2265.55,-117 2271.55,-117"/>
<text text-anchor="middle" x="2434.99" y="-308.6" font-family="Helvetica Neue Bold" font-size="12.00">Infrastructure</text>
</g>
<!-- pg_home -->
<g id="node1" class="node">
<title>pg_home</title>
<path fill="#ffffff" stroke="#1a73e8" stroke-width="1.3" d="M112.68,-136.03C112.68,-136.03 36,-136.03 36,-136.03 30,-136.03 24,-130.03 24,-124.03 24,-124.03 24,-107.97 24,-107.97 24,-101.97 30,-95.97 36,-95.97 36,-95.97 112.68,-95.97 112.68,-95.97 118.68,-95.97 124.68,-101.97 124.68,-107.97 124.68,-107.97 124.68,-124.03 124.68,-124.03 124.68,-130.03 118.68,-136.03 112.68,-136.03"/>
<text text-anchor="middle" x="74.34" y="-118.61" font-family="Helvetica Neue" font-size="10.00" fill="#202124">Home</text>
<text text-anchor="middle" x="74.34" y="-106.61" font-family="Helvetica Neue" font-size="10.00" fill="#202124">업로드·색상 선택</text>
</g>
<!-- svc_analysis -->
<g id="node4" class="node">
<title>svc_analysis</title>
<path fill="#ffffff" stroke="#1a73e8" stroke-width="1.3" d="M308.36,-136.3C308.36,-136.3 231.68,-136.3 231.68,-136.3 225.68,-136.3 219.68,-130.3 219.68,-124.3 219.68,-124.3 219.68,-107.7 219.68,-107.7 219.68,-101.7 225.68,-95.7 231.68,-95.7 231.68,-95.7 308.36,-95.7 308.36,-95.7 314.36,-95.7 320.36,-101.7 320.36,-107.7 320.36,-107.7 320.36,-124.3 320.36,-124.3 320.36,-130.3 314.36,-136.3 308.36,-136.3"/>
<text text-anchor="middle" x="270.02" y="-118.88" font-family="Helvetica Neue" font-size="10.00" fill="#202124">analysisService</text>
<text text-anchor="middle" x="270.02" y="-106.88" font-family="Helvetica Neue" font-size="10.00" fill="#202124">(2.5s 폴링)</text>
</g>
<!-- pg_home&#45;&gt;svc_analysis -->
<g id="edge1" class="edge">
<title>pg_home&#45;&gt;svc_analysis</title>
<path fill="none" stroke="#7baaf7" stroke-width="1.2" stroke-dasharray="5,2" d="M124.97,-116C150.95,-116 182.93,-116 210.15,-116"/>
<polygon fill="#7baaf7" stroke="#7baaf7" stroke-width="1.2" points="209.87,-118.63 217.37,-116 209.87,-113.38 209.87,-118.63"/>
</g>
<!-- pg_history -->
<g id="node2" class="node">
<title>pg_history</title>
<path fill="#ffffff" stroke="#1a73e8" stroke-width="1.3" d="M106.68,-63.92C106.68,-63.92 42,-63.92 42,-63.92 36,-63.92 30,-57.92 30,-51.92 30,-51.92 30,-36.08 30,-36.08 30,-30.08 36,-24.08 42,-24.08 42,-24.08 106.68,-24.08 106.68,-24.08 112.68,-24.08 118.68,-30.08 118.68,-36.08 118.68,-36.08 118.68,-51.92 118.68,-51.92 118.68,-57.92 112.68,-63.92 106.68,-63.92"/>
<text text-anchor="middle" x="74.34" y="-46.5" font-family="Helvetica Neue" font-size="10.00" fill="#202124">History</text>
<text text-anchor="middle" x="74.34" y="-34.5" font-family="Helvetica Neue" font-size="10.00" fill="#202124">분석 히스토리</text>
</g>
<!-- pg_history&#45;&gt;svc_analysis -->
<g id="edge2" class="edge">
<title>pg_history&#45;&gt;svc_analysis</title>
<path fill="none" stroke="#7baaf7" stroke-width="1.2" stroke-dasharray="5,2" d="M118.81,-60.16C145.91,-70.23 181.12,-83.32 210.64,-94.3"/>
<polygon fill="#7baaf7" stroke="#7baaf7" stroke-width="1.2" points="209.56,-96.7 217.5,-96.85 211.39,-91.78 209.56,-96.7"/>
</g>
<!-- pg_login -->
<g id="node3" class="node">
<title>pg_login</title>
<path fill="#ffffff" stroke="#1a73e8" stroke-width="1.3" d="M110.81,-204C110.81,-204 37.88,-204 37.88,-204 31.88,-204 25.88,-198 25.88,-192 25.88,-192 25.88,-180 25.88,-180 25.88,-174 31.88,-168 37.88,-168 37.88,-168 110.81,-168 110.81,-168 116.81,-168 122.81,-174 122.81,-180 122.81,-180 122.81,-192 122.81,-192 122.81,-198 116.81,-204 110.81,-204"/>
<text text-anchor="middle" x="74.34" y="-182.5" font-family="Helvetica Neue" font-size="10.00" fill="#202124">Login / Signup</text>
</g>
<!-- svc_auth -->
<g id="node5" class="node">
<title>svc_auth</title>
<path fill="#ffffff" stroke="#1a73e8" stroke-width="1.3" d="M299.74,-204C299.74,-204 240.31,-204 240.31,-204 234.31,-204 228.31,-198 228.31,-192 228.31,-192 228.31,-180 228.31,-180 228.31,-174 234.31,-168 240.31,-168 240.31,-168 299.74,-168 299.74,-168 305.74,-168 311.74,-174 311.74,-180 311.74,-180 311.74,-192 311.74,-192 311.74,-198 305.74,-204 299.74,-204"/>
<text text-anchor="middle" x="270.02" y="-182.5" font-family="Helvetica Neue" font-size="10.00" fill="#202124">authService</text>
</g>
<!-- pg_login&#45;&gt;svc_auth -->
<g id="edge3" class="edge">
<title>pg_login&#45;&gt;svc_auth</title>
<path fill="none" stroke="#7baaf7" stroke-width="1.2" stroke-dasharray="5,2" d="M123.22,-186C152.23,-186 189.19,-186 218.64,-186"/>
<polygon fill="#7baaf7" stroke="#7baaf7" stroke-width="1.2" points="218.61,-188.63 226.11,-186 218.61,-183.38 218.61,-188.63"/>
</g>
<!-- fe_api -->
<g id="node6" class="node">
<title>fe_api</title>
<path fill="#1a73e8" stroke="#0d47a1" stroke-width="1.5" d="M541.54,-200.92C541.54,-200.92 427.36,-200.92 427.36,-200.92 421.36,-200.92 415.36,-194.92 415.36,-188.92 415.36,-188.92 415.36,-173.08 415.36,-173.08 415.36,-167.08 421.36,-161.08 427.36,-161.08 427.36,-161.08 541.54,-161.08 541.54,-161.08 547.54,-161.08 553.54,-167.08 553.54,-173.08 553.54,-173.08 553.54,-188.92 553.54,-188.92 553.54,-194.92 547.54,-200.92 541.54,-200.92"/>
<text text-anchor="middle" x="484.45" y="-183.5" font-family="Helvetica Neue" font-size="10.00" fill="#ffffff">apiClient</text>
<text text-anchor="middle" x="484.45" y="-171.5" font-family="Helvetica Neue" font-size="10.00" fill="#ffffff">axios + JWT interceptor</text>
</g>
<!-- svc_analysis&#45;&gt;fe_api -->
<g id="edge4" class="edge">
<title>svc_analysis&#45;&gt;fe_api</title>
<path fill="none" stroke="#1a73e8" stroke-width="1.2" d="M320.83,-131.24C346.83,-139.2 379.19,-149.1 408.18,-157.97"/>
<polygon fill="#1a73e8" stroke="#1a73e8" stroke-width="1.2" points="407.39,-160.47 415.33,-160.15 408.92,-155.45 407.39,-160.47"/>
</g>
<!-- svc_auth&#45;&gt;fe_api -->
<g id="edge5" class="edge">
<title>svc_auth&#45;&gt;fe_api</title>
<path fill="none" stroke="#1a73e8" stroke-width="1.2" d="M312.23,-185.03C338.81,-184.4 374.2,-183.57 405.91,-182.82"/>
<polygon fill="#1a73e8" stroke="#1a73e8" stroke-width="1.2" points="405.93,-185.45 413.37,-182.65 405.81,-180.2 405.93,-185.45"/>
</g>
<!-- sec_jwt -->
<g id="node7" class="node">
<title>sec_jwt</title>
<path fill="#ffffff" stroke="#1e8449" stroke-width="1.3" d="M850.22,-140C850.22,-140 747.29,-140 747.29,-140 741.29,-140 735.29,-134 735.29,-128 735.29,-128 735.29,-116 735.29,-116 735.29,-110 741.29,-104 747.29,-104 747.29,-104 850.22,-104 850.22,-104 856.22,-104 862.22,-110 862.22,-116 862.22,-116 862.22,-128 862.22,-128 862.22,-134 856.22,-140 850.22,-140"/>
<text text-anchor="middle" x="798.76" y="-118.5" font-family="Helvetica Neue" font-size="10.00" fill="#202124">JwtAuthorizationFilter</text>
</g>
<!-- fe_api&#45;&gt;sec_jwt -->
<g id="edge25" class="edge">
<title>fe_api&#45;&gt;sec_jwt</title>
<path fill="none" stroke="#1a73e8" stroke-width="2" d="M553.99,-168.05C604.57,-158.5 673.29,-145.51 724.87,-135.77"/>
<polygon fill="#1a73e8" stroke="#1a73e8" stroke-width="2" points="725.1,-138.4 731.98,-134.43 724.12,-133.24 725.1,-138.4"/>
<text text-anchor="middle" x="644.42" y="-161.22" font-family="Helvetica Neue" font-size="9.00" fill="#1a73e8"> REST + JWT Bearer</text>
</g>
<!-- sec_login -->
<g id="node8" class="node">
<title>sec_login</title>
<path fill="#ffffff" stroke="#1e8449" stroke-width="1.3" d="M843.47,-208C843.47,-208 754.04,-208 754.04,-208 748.04,-208 742.04,-202 742.04,-196 742.04,-196 742.04,-184 742.04,-184 742.04,-178 748.04,-172 754.04,-172 754.04,-172 843.47,-172 843.47,-172 849.47,-172 855.47,-178 855.47,-184 855.47,-184 855.47,-196 855.47,-196 855.47,-202 849.47,-208 843.47,-208"/>
<text text-anchor="middle" x="798.76" y="-186.5" font-family="Helvetica Neue" font-size="10.00" fill="#202124">CustomLoginFilter</text>
</g>
<!-- fe_api&#45;&gt;sec_login -->
<g id="edge24" class="edge">
<title>fe_api&#45;&gt;sec_login</title>
<path fill="none" stroke="#1a73e8" stroke-width="2" d="M553.99,-182.98C606.65,-184.49 678.97,-186.58 731.14,-188.08"/>
<polygon fill="#1a73e8" stroke="#1a73e8" stroke-width="2" points="731.03,-190.7 738.6,-188.3 731.18,-185.46 731.03,-190.7"/>
<text text-anchor="middle" x="644.42" y="-189.53" font-family="Helvetica Neue" font-size="9.00" fill="#1a73e8"> POST /api/auth/login</text>
</g>
<!-- ctl_mission -->
<g id="node10" class="node">
<title>ctl_mission</title>
<path fill="#ffffff" stroke="#1e8449" stroke-width="1.3" d="M1082.65,-140C1082.65,-140 969.22,-140 969.22,-140 963.22,-140 957.22,-134 957.22,-128 957.22,-128 957.22,-116 957.22,-116 957.22,-110 963.22,-104 969.22,-104 969.22,-104 1082.65,-104 1082.65,-104 1088.65,-104 1094.65,-110 1094.65,-116 1094.65,-116 1094.65,-128 1094.65,-128 1094.65,-134 1088.65,-140 1082.65,-140"/>
<text text-anchor="middle" x="1025.94" y="-118.5" font-family="Helvetica Neue" font-size="10.00" fill="#202124">MissionImageController</text>
</g>
<!-- sec_jwt&#45;&gt;ctl_mission -->
<g id="edge11" class="edge">
<title>sec_jwt&#45;&gt;ctl_mission</title>
<path fill="none" stroke="#27ae60" stroke-width="1.2" d="M862.48,-122C888.9,-122 919.92,-122 947.73,-122"/>
<polygon fill="#27ae60" stroke="#27ae60" stroke-width="1.2" points="947.71,-124.63 955.21,-122 947.71,-119.38 947.71,-124.63"/>
</g>
<!-- ctl_history -->
<g id="node11" class="node">
<title>ctl_history</title>
<path fill="#ffffff" stroke="#1e8449" stroke-width="1.3" d="M1070.28,-72C1070.28,-72 981.6,-72 981.6,-72 975.6,-72 969.6,-66 969.6,-60 969.6,-60 969.6,-48 969.6,-48 969.6,-42 975.6,-36 981.6,-36 981.6,-36 1070.28,-36 1070.28,-36 1076.28,-36 1082.28,-42 1082.28,-48 1082.28,-48 1082.28,-60 1082.28,-60 1082.28,-66 1076.28,-72 1070.28,-72"/>
<text text-anchor="middle" x="1025.94" y="-50.5" font-family="Helvetica Neue" font-size="10.00" fill="#202124">AnalysisController</text>
</g>
<!-- sec_jwt&#45;&gt;ctl_history -->
<g id="edge12" class="edge">
<title>sec_jwt&#45;&gt;ctl_history</title>
<path fill="none" stroke="#27ae60" stroke-width="1.2" d="M860.99,-103.51C891.82,-94.2 929.19,-82.91 960.46,-73.47"/>
<polygon fill="#27ae60" stroke="#27ae60" stroke-width="1.2" points="960.95,-76.06 967.37,-71.38 959.43,-71.04 960.95,-76.06"/>
</g>
<!-- ctl_auth -->
<g id="node9" class="node">
<title>ctl_auth</title>
<path fill="#ffffff" stroke="#1e8449" stroke-width="1.3" d="M1061.65,-208C1061.65,-208 990.22,-208 990.22,-208 984.22,-208 978.22,-202 978.22,-196 978.22,-196 978.22,-184 978.22,-184 978.22,-178 984.22,-172 990.22,-172 990.22,-172 1061.65,-172 1061.65,-172 1067.65,-172 1073.65,-178 1073.65,-184 1073.65,-184 1073.65,-196 1073.65,-196 1073.65,-202 1067.65,-208 1061.65,-208"/>
<text text-anchor="middle" x="1025.94" y="-186.5" font-family="Helvetica Neue" font-size="10.00" fill="#202124">AuthController</text>
</g>
<!-- sec_login&#45;&gt;ctl_auth -->
<g id="edge10" class="edge">
<title>sec_login&#45;&gt;ctl_auth</title>
<path fill="none" stroke="#27ae60" stroke-width="1.2" d="M855.71,-190C890.26,-190 934.44,-190 969,-190"/>
<polygon fill="#27ae60" stroke="#27ae60" stroke-width="1.2" points="968.7,-192.63 976.2,-190 968.7,-187.38 968.7,-192.63"/>
</g>
<!-- svc_user -->
<g id="node12" class="node">
<title>svc_user</title>
<path fill="#ffffff" stroke="#1e8449" stroke-width="1.3" d="M1283.96,-140C1283.96,-140 1222.28,-140 1222.28,-140 1216.28,-140 1210.28,-134 1210.28,-128 1210.28,-128 1210.28,-116 1210.28,-116 1210.28,-110 1216.28,-104 1222.28,-104 1222.28,-104 1283.96,-104 1283.96,-104 1289.96,-104 1295.96,-110 1295.96,-116 1295.96,-116 1295.96,-128 1295.96,-128 1295.96,-134 1289.96,-140 1283.96,-140"/>
<text text-anchor="middle" x="1253.12" y="-118.5" font-family="Helvetica Neue" font-size="10.00" fill="#202124">UserService</text>
</g>
<!-- ctl_auth&#45;&gt;svc_user -->
<g id="edge13" class="edge">
<title>ctl_auth&#45;&gt;svc_user</title>
<path fill="none" stroke="#1e8449" stroke-width="1.2" d="M1074.14,-175.74C1111.27,-164.53 1162.92,-148.93 1201.02,-137.43"/>
<polygon fill="#1e8449" stroke="#1e8449" stroke-width="1.2" points="1201.75,-139.95 1208.17,-135.27 1200.23,-134.93 1201.75,-139.95"/>
</g>
<!-- svc_mission -->
<g id="node13" class="node">
<title>svc_mission</title>
<path fill="#ffffff" stroke="#1e8449" stroke-width="1.3" d="M1291.08,-72C1291.08,-72 1215.15,-72 1215.15,-72 1209.15,-72 1203.15,-66 1203.15,-60 1203.15,-60 1203.15,-48 1203.15,-48 1203.15,-42 1209.15,-36 1215.15,-36 1215.15,-36 1291.08,-36 1291.08,-36 1297.08,-36 1303.08,-42 1303.08,-48 1303.08,-48 1303.08,-60 1303.08,-60 1303.08,-66 1297.08,-72 1291.08,-72"/>
<text text-anchor="middle" x="1253.12" y="-50.5" font-family="Helvetica Neue" font-size="10.00" fill="#202124">MissionService</text>
</g>
<!-- ctl_mission&#45;&gt;svc_mission -->
<g id="edge14" class="edge">
<title>ctl_mission&#45;&gt;svc_mission</title>
<path fill="none" stroke="#1e8449" stroke-width="1.2" d="M1088.17,-103.51C1121.28,-93.51 1161.94,-81.23 1194.49,-71.4"/>
<polygon fill="#1e8449" stroke="#1e8449" stroke-width="1.2" points="1194.85,-74.04 1201.27,-69.36 1193.33,-69.01 1194.85,-74.04"/>
</g>
<!-- svc_color -->
<g id="node15" class="node">
<title>svc_color</title>
<path fill="#ffffff" stroke="#1e8449" stroke-width="1.3" d="M1304.58,-211.92C1304.58,-211.92 1201.65,-211.92 1201.65,-211.92 1195.65,-211.92 1189.65,-205.92 1189.65,-199.92 1189.65,-199.92 1189.65,-184.08 1189.65,-184.08 1189.65,-178.08 1195.65,-172.08 1201.65,-172.08 1201.65,-172.08 1304.58,-172.08 1304.58,-172.08 1310.58,-172.08 1316.58,-178.08 1316.58,-184.08 1316.58,-184.08 1316.58,-199.92 1316.58,-199.92 1316.58,-205.92 1310.58,-211.92 1304.58,-211.92"/>
<text text-anchor="middle" x="1253.12" y="-194.5" font-family="Helvetica Neue" font-size="10.00" fill="#202124">ColorAnalysisService</text>
<text text-anchor="middle" x="1253.12" y="-182.5" font-family="Helvetica Neue" font-size="10.00" fill="#202124">@Async</text>
</g>
<!-- ctl_mission&#45;&gt;svc_color -->
<g id="edge15" class="edge">
<title>ctl_mission&#45;&gt;svc_color</title>
<path fill="none" stroke="#1e8449" stroke-width="1.2" d="M1086.39,-140.48C1115.21,-149.44 1150.06,-160.27 1180.34,-169.69"/>
<polygon fill="#1e8449" stroke="#1e8449" stroke-width="1.2" points="1179.49,-172.17 1187.43,-171.89 1181.05,-167.16 1179.49,-172.17"/>
</g>
<!-- ctl_history&#45;&gt;svc_mission -->
<g id="edge16" class="edge">
<title>ctl_history&#45;&gt;svc_mission</title>
<path fill="none" stroke="#1e8449" stroke-width="1.2" d="M1082.6,-54C1116.43,-54 1159.57,-54 1193.87,-54"/>
<polygon fill="#1e8449" stroke="#1e8449" stroke-width="1.2" points="1193.52,-56.63 1201.02,-54 1193.52,-51.38 1193.52,-56.63"/>
</g>
<!-- repo_user -->
<g id="node19" class="node">
<title>repo_user</title>
<path fill="#ffffff" stroke="#1e8449" stroke-width="1.3" d="M2145.93,-170C2145.93,-170 2068.49,-170 2068.49,-170 2062.49,-170 2056.49,-164 2056.49,-158 2056.49,-158 2056.49,-146 2056.49,-146 2056.49,-140 2062.49,-134 2068.49,-134 2068.49,-134 2145.93,-134 2145.93,-134 2151.93,-134 2157.93,-140 2157.93,-146 2157.93,-146 2157.93,-158 2157.93,-158 2157.93,-164 2151.93,-170 2145.93,-170"/>
<text text-anchor="middle" x="2107.21" y="-148.5" font-family="Helvetica Neue" font-size="10.00" fill="#202124">UserRepository</text>
</g>
<!-- svc_user&#45;&gt;repo_user -->
<g id="edge18" class="edge">
<title>svc_user&#45;&gt;repo_user</title>
<path fill="none" stroke="#58d68d" stroke-width="1.2" stroke-dasharray="5,2" d="M1296.11,-126.97C1355.48,-134 1456.8,-146 1456.8,-146 1456.8,-146 1456.8,-146 1841.53,-146 1841.53,-146 1968.82,-148.89 2046.85,-150.65"/>
<polygon fill="#58d68d" stroke="#58d68d" stroke-width="1.2" points="2046.74,-153.28 2054.3,-150.82 2046.86,-148.03 2046.74,-153.28"/>
</g>
<!-- svc_s3 -->
<g id="node14" class="node">
<title>svc_s3</title>
<path fill="#ffffff" stroke="#1e8449" stroke-width="1.3" d="M1484.14,-74C1484.14,-74 1431.46,-74 1431.46,-74 1425.46,-74 1419.46,-68 1419.46,-62 1419.46,-62 1419.46,-50 1419.46,-50 1419.46,-44 1425.46,-38 1431.46,-38 1431.46,-38 1484.14,-38 1484.14,-38 1490.14,-38 1496.14,-44 1496.14,-50 1496.14,-50 1496.14,-62 1496.14,-62 1496.14,-68 1490.14,-74 1484.14,-74"/>
<text text-anchor="middle" x="1457.8" y="-52.5" font-family="Helvetica Neue" font-size="10.00" fill="#202124">S3Service</text>
</g>
<!-- svc_mission&#45;&gt;svc_s3 -->
<g id="edge17" class="edge">
<title>svc_mission&#45;&gt;svc_s3</title>
<path fill="none" stroke="#1e8449" stroke-width="1.2" stroke-dasharray="5,2" d="M1303.44,-54.49C1335.86,-54.81 1378.02,-55.22 1409.94,-55.54"/>
<polygon fill="#1e8449" stroke="#1e8449" stroke-width="1.2" points="1409.72,-58.16 1417.25,-55.61 1409.78,-52.91 1409.72,-58.16"/>
</g>
<!-- repo_req -->
<g id="node20" class="node">
<title>repo_req</title>
<path fill="#ffffff" stroke="#1e8449" stroke-width="1.3" d="M2172.55,-238C2172.55,-238 2041.87,-238 2041.87,-238 2035.87,-238 2029.87,-232 2029.87,-226 2029.87,-226 2029.87,-214 2029.87,-214 2029.87,-208 2035.87,-202 2041.87,-202 2041.87,-202 2172.55,-202 2172.55,-202 2178.55,-202 2184.55,-208 2184.55,-214 2184.55,-214 2184.55,-226 2184.55,-226 2184.55,-232 2178.55,-238 2172.55,-238"/>
<text text-anchor="middle" x="2107.21" y="-216.5" font-family="Helvetica Neue" font-size="10.00" fill="#202124">AnalysisRequestRepository</text>
</g>
<!-- svc_mission&#45;&gt;repo_req -->
<g id="edge19" class="edge">
<title>svc_mission&#45;&gt;repo_req</title>
<path fill="none" stroke="#58d68d" stroke-width="1.2" stroke-dasharray="5,2" d="M1303.44,-67.63C1363.43,-84.2 1456.8,-110 1456.8,-110 1456.8,-110 1456.8,-110 1841.53,-110 1841.53,-110 2019.87,-186 2019.87,-186 2019.87,-186 2034,-191.56 2050.82,-198.19"/>
<polygon fill="#58d68d" stroke="#58d68d" stroke-width="1.2" points="2049.62,-200.54 2057.56,-200.84 2051.54,-195.65 2049.62,-200.54"/>
</g>
<!-- infra_s3 -->
<g id="node24" class="node">
<title>infra_s3</title>
<path fill="lightgrey" stroke="none" stroke-width="1.3" d="M2578.43,-281C2578.43,-281 2501.75,-281 2501.75,-281 2495.75,-281 2489.75,-275 2489.75,-269 2489.75,-269 2489.75,-149 2489.75,-149 2489.75,-143 2495.75,-137 2501.75,-137 2501.75,-137 2578.43,-137 2578.43,-137 2584.43,-137 2590.43,-143 2590.43,-149 2590.43,-149 2590.43,-269 2590.43,-269 2590.43,-275 2584.43,-281 2578.43,-281"/>
<image xlink:href="images/s3_icon.png" width="100.68px" height="120.816px" preserveAspectRatio="xMinYMin meet" x="2489.75" y="-269.408"/>
<text text-anchor="middle" x="2540.09" y="-139.5" font-family="Helvetica Neue" font-size="10.00" fill="#202124">이미지 원본 저장</text>
</g>
<!-- svc_s3&#45;&gt;infra_s3 -->
<g id="edge26" class="edge">
<title>svc_s3&#45;&gt;infra_s3</title>
<path fill="none" stroke="#ff9900" stroke-width="2" d="M1496.47,-56.4C1550.87,-56.99 1644.98,-58 1644.98,-58 1644.98,-58 1644.98,-58 2338.15,-58 2338.15,-58 2422.34,-121.27 2481.73,-165.9"/>
<polygon fill="#ff9900" stroke="#ff9900" stroke-width="2" points="2479.94,-167.84 2487.51,-170.24 2483.1,-163.64 2479.94,-167.84"/>
<text text-anchor="middle" x="1961.5" y="-60.7" font-family="Helvetica Neue" font-size="9.00" fill="#ff9900"> PutObject</text>
</g>
<!-- core_kmeans -->
<g id="node16" class="node">
<title>core_kmeans</title>
<path fill="#ffffff" stroke="#e67e22" stroke-width="1.3" d="M1492.01,-308.3C1492.01,-308.3 1423.58,-308.3 1423.58,-308.3 1417.58,-308.3 1411.58,-302.3 1411.58,-296.3 1411.58,-296.3 1411.58,-279.7 1411.58,-279.7 1411.58,-273.7 1417.58,-267.7 1423.58,-267.7 1423.58,-267.7 1492.01,-267.7 1492.01,-267.7 1498.01,-267.7 1504.01,-273.7 1504.01,-279.7 1504.01,-279.7 1504.01,-296.3 1504.01,-296.3 1504.01,-302.3 1498.01,-308.3 1492.01,-308.3"/>
<text text-anchor="middle" x="1457.8" y="-290.88" font-family="Helvetica Neue" font-size="10.00" fill="#202124">K&#45;means K=8</text>
<text text-anchor="middle" x="1457.8" y="-278.88" font-family="Helvetica Neue" font-size="10.00" fill="#202124">Lab 공간</text>
</g>
<!-- svc_color&#45;&gt;core_kmeans -->
<g id="edge8" class="edge">
<title>svc_color&#45;&gt;core_kmeans</title>
<path fill="none" stroke="#e67e22" stroke-width="1.5" d="M1297.1,-212.36C1328.46,-227.21 1371.13,-247.42 1404.47,-263.22"/>
<polygon fill="#e67e22" stroke="#e67e22" stroke-width="1.5" points="1403.22,-265.53 1411.12,-266.37 1405.47,-260.78 1403.22,-265.53"/>
</g>
<!-- svc_color&#45;&gt;repo_req -->
<g id="edge22" class="edge">
<title>svc_color&#45;&gt;repo_req</title>
<path fill="none" stroke="#58d68d" stroke-width="1.2" stroke-dasharray="5,2" d="M1273.7,-212.18C1313.81,-253.53 1401.58,-344 1401.58,-344 1401.58,-344 1456.8,-349 1456.8,-349 1456.8,-349 1456.8,-349 1841.53,-349 1841.53,-349 1903.12,-344 1903.12,-344 1903.12,-344 2019.87,-254 2019.87,-254 2019.87,-254 2034,-248.44 2050.82,-241.81"/>
<polygon fill="#58d68d" stroke="#58d68d" stroke-width="1.2" points="2051.54,-244.35 2057.56,-239.16 2049.62,-239.46 2051.54,-244.35"/>
</g>
<!-- repo_result -->
<g id="node21" class="node">
<title>repo_result</title>
<path fill="#ffffff" stroke="#1e8449" stroke-width="1.3" d="M2168.05,-306C2168.05,-306 2046.37,-306 2046.37,-306 2040.37,-306 2034.37,-300 2034.37,-294 2034.37,-294 2034.37,-282 2034.37,-282 2034.37,-276 2040.37,-270 2046.37,-270 2046.37,-270 2168.05,-270 2168.05,-270 2174.05,-270 2180.05,-276 2180.05,-282 2180.05,-282 2180.05,-294 2180.05,-294 2180.05,-300 2174.05,-306 2168.05,-306"/>
<text text-anchor="middle" x="2107.21" y="-284.5" font-family="Helvetica Neue" font-size="10.00" fill="#202124">AnalysisResultRepository</text>
</g>
<!-- svc_color&#45;&gt;repo_result -->
<g id="edge20" class="edge">
<title>svc_color&#45;&gt;repo_result</title>
<path fill="none" stroke="#58d68d" stroke-width="1.2" stroke-dasharray="5,2" d="M1272.19,-212.15C1303.28,-246.8 1363.58,-314 1363.58,-314 1363.58,-314 1401.58,-356 1401.58,-356 1401.58,-356 1456.8,-383 1456.8,-383 1456.8,-383 1456.8,-383 1841.53,-383 1841.53,-383 1968.47,-337.44 2046.53,-309.42"/>
<polygon fill="#58d68d" stroke="#58d68d" stroke-width="1.2" points="2046.98,-312.05 2053.15,-307.04 2045.21,-307.11 2046.98,-312.05"/>
</g>
<!-- repo_color -->
<g id="node22" class="node">
<title>repo_color</title>
<path fill="#ffffff" stroke="#1e8449" stroke-width="1.3" d="M2167.68,-374C2167.68,-374 2046.75,-374 2046.75,-374 2040.75,-374 2034.75,-368 2034.75,-362 2034.75,-362 2034.75,-350 2034.75,-350 2034.75,-344 2040.75,-338 2046.75,-338 2046.75,-338 2167.68,-338 2167.68,-338 2173.68,-338 2179.68,-344 2179.68,-350 2179.68,-350 2179.68,-362 2179.68,-362 2179.68,-368 2173.68,-374 2167.68,-374"/>
<text text-anchor="middle" x="2107.21" y="-352.5" font-family="Helvetica Neue" font-size="10.00" fill="#202124">DetectedColorRepository</text>
</g>
<!-- svc_color&#45;&gt;repo_color -->
<g id="edge21" class="edge">
<title>svc_color&#45;&gt;repo_color</title>
<path fill="none" stroke="#58d68d" stroke-width="1.2" stroke-dasharray="5,2" d="M1270.18,-212.37C1308.4,-260.83 1401.58,-379 1401.58,-379 1401.58,-379 1456.8,-417 1456.8,-417 1456.8,-417 1456.8,-417 1841.53,-417 1841.53,-417 1947.85,-392.5 2025.72,-374.55"/>
<polygon fill="#58d68d" stroke="#58d68d" stroke-width="1.2" points="2026.1,-377.16 2032.81,-372.92 2024.92,-372.04 2026.1,-377.16"/>
</g>
<!-- core_lch -->
<g id="node17" class="node">
<title>core_lch</title>
<path fill="#ffffff" stroke="#e67e22" stroke-width="1.3" d="M1680.94,-308.3C1680.94,-308.3 1611.01,-308.3 1611.01,-308.3 1605.01,-308.3 1599.01,-302.3 1599.01,-296.3 1599.01,-296.3 1599.01,-279.7 1599.01,-279.7 1599.01,-273.7 1605.01,-267.7 1611.01,-267.7 1611.01,-267.7 1680.94,-267.7 1680.94,-267.7 1686.94,-267.7 1692.94,-273.7 1692.94,-279.7 1692.94,-279.7 1692.94,-296.3 1692.94,-296.3 1692.94,-302.3 1686.94,-308.3 1680.94,-308.3"/>
<text text-anchor="middle" x="1645.98" y="-290.88" font-family="Helvetica Neue" font-size="10.00" fill="#202124">LCH Hue 각도</text>
<text text-anchor="middle" x="1645.98" y="-278.12" font-family="Helvetica Neue" font-size="10.00" fill="#202124">atan2(b,a)</text>
</g>
<!-- core_kmeans&#45;&gt;core_lch -->
<g id="edge6" class="edge">
<title>core_kmeans&#45;&gt;core_lch</title>
<path fill="none" stroke="#e67e22" stroke-width="1.5" d="M1504.34,-288C1529.84,-288 1561.86,-288 1588.89,-288"/>
<polygon fill="#e67e22" stroke="#e67e22" stroke-width="1.5" points="1588.84,-290.63 1596.34,-288 1588.84,-285.38 1588.84,-290.63"/>
</g>
<!-- core_enum -->
<g id="node18" class="node">
<title>core_enum</title>
<path fill="#ffffff" stroke="#e67e22" stroke-width="1.3" d="M1881.12,-307.92C1881.12,-307.92 1799.94,-307.92 1799.94,-307.92 1793.94,-307.92 1787.94,-301.92 1787.94,-295.92 1787.94,-295.92 1787.94,-280.08 1787.94,-280.08 1787.94,-274.08 1793.94,-268.08 1799.94,-268.08 1799.94,-268.08 1881.12,-268.08 1881.12,-268.08 1887.12,-268.08 1893.12,-274.08 1893.12,-280.08 1893.12,-280.08 1893.12,-295.92 1893.12,-295.92 1893.12,-301.92 1887.12,-307.92 1881.12,-307.92"/>
<text text-anchor="middle" x="1840.53" y="-290.5" font-family="Helvetica Neue" font-size="10.00" fill="#202124">ColorType Enum</text>
<text text-anchor="middle" x="1840.53" y="-278.5" font-family="Helvetica Neue" font-size="10.00" fill="#202124">유사도 계산</text>
</g>
<!-- core_lch&#45;&gt;core_enum -->
<g id="edge7" class="edge">
<title>core_lch&#45;&gt;core_enum</title>
<path fill="none" stroke="#e67e22" stroke-width="1.5" d="M1693.1,-288C1718.58,-288 1750.56,-288 1778.13,-288"/>
<polygon fill="#e67e22" stroke="#e67e22" stroke-width="1.5" points="1777.91,-290.63 1785.41,-288 1777.91,-285.38 1777.91,-290.63"/>
</g>
<!-- core_enum&#45;&gt;repo_result -->
<!-- infra_db -->
<g id="node23" class="node">
<title>infra_db</title>
<path fill="lightgrey" stroke="none" stroke-width="1.3" d="M2382.75,-270.4C2382.75,-270.4 2291.55,-270.4 2291.55,-270.4 2285.55,-270.4 2279.55,-264.4 2279.55,-258.4 2279.55,-258.4 2279.55,-181.6 2279.55,-181.6 2279.55,-175.6 2285.55,-169.6 2291.55,-169.6 2291.55,-169.6 2382.75,-169.6 2382.75,-169.6 2388.75,-169.6 2394.75,-175.6 2394.75,-181.6 2394.75,-181.6 2394.75,-258.4 2394.75,-258.4 2394.75,-264.4 2388.75,-270.4 2382.75,-270.4"/>
<image xlink:href="images/mysql_icon_sm.png" width="115.2px" height="59.5862px" preserveAspectRatio="xMinYMin meet" x="2279.55" y="-249.793"/>
<text text-anchor="middle" x="2337.15" y="-172.1" font-family="Helvetica Neue" font-size="10.00" fill="#202124">findcolor DB</text>
</g>
<!-- repo_user&#45;&gt;infra_db -->
<g id="edge27" class="edge">
<title>repo_user&#45;&gt;infra_db</title>
<path fill="none" stroke="#7d3c98" stroke-width="1.5" d="M2158.23,-166.92C2191.33,-176.8 2235.08,-189.85 2270.91,-200.54"/>
<polygon fill="#7d3c98" stroke="#7d3c98" stroke-width="1.5" points="2269.72,-202.92 2277.66,-202.55 2271.22,-197.89 2269.72,-202.92"/>
</g>
<!-- repo_req&#45;&gt;infra_db -->
<g id="edge28" class="edge">
<title>repo_req&#45;&gt;infra_db</title>
<path fill="none" stroke="#7d3c98" stroke-width="1.5" d="M2184.74,-220C2212.39,-220 2243.34,-220 2270.02,-220"/>
<polygon fill="#7d3c98" stroke="#7d3c98" stroke-width="1.5" points="2269.87,-222.63 2277.37,-220 2269.87,-217.38 2269.87,-222.63"/>
</g>
<!-- repo_result&#45;&gt;infra_db -->
<g id="edge29" class="edge">
<title>repo_result&#45;&gt;infra_db</title>
<path fill="none" stroke="#7d3c98" stroke-width="1.5" d="M2170.19,-269.51C2201.27,-260.24 2238.91,-249.01 2270.48,-239.59"/>
<polygon fill="#7d3c98" stroke="#7d3c98" stroke-width="1.5" points="2271.03,-242.17 2277.47,-237.51 2269.53,-237.14 2271.03,-242.17"/>
</g>
<!-- repo_color&#45;&gt;infra_db -->
<g id="edge30" class="edge">
<title>repo_color&#45;&gt;infra_db</title>
<path fill="none" stroke="#7d3c98" stroke-width="1.5" d="M2163.87,-337.51C2187.88,-329.53 2210.55,-322 2210.55,-322 2210.55,-322 2241.15,-297.15 2272.15,-271.97"/>
<polygon fill="#7d3c98" stroke="#7d3c98" stroke-width="1.5" points="2273.67,-274.12 2277.83,-267.36 2270.36,-270.05 2273.67,-274.12"/>
</g>
<!-- infra_db&#45;&gt;infra_s3 -->
</g>
</svg>
