<?xml version="1.0" encoding="UTF-8" standalone="no"?>
<!DOCTYPE svg PUBLIC "-//W3C//DTD SVG 1.1//EN"
 "http://www.w3.org/Graphics/SVG/1.1/DTD/svg11.dtd">
<!-- Generated by graphviz version 12.2.1 (20241206.2353)
 -->
<!-- Title: findColor Pages: 1 -->
<svg width="1220pt" height="1314pt"
 viewBox="0.00 0.00 1219.79 1314.29" xmlns="http://www.w3.org/2000/svg" xmlns:xlink="http://www.w3.org/1999/xlink">
<g id="graph0" class="graph" transform="scale(1 1) rotate(0) translate(57.6 1256.69)">
<title>findColor</title>
<polygon fill="#f8f9fa" stroke="none" points="-57.6,57.6 -57.6,-1256.69 1162.19,-1256.69 1162.19,57.6 -57.6,57.6"/>
<g id="clust1" class="cluster">
<title>cluster_fe</title>
<path fill="#ebf5fb" stroke="#2980b9" d="M596,-857.68C596,-857.68 1021,-857.68 1021,-857.68 1027,-857.68 1033,-863.68 1033,-869.68 1033,-869.68 1033,-1179.09 1033,-1179.09 1033,-1185.09 1027,-1191.09 1021,-1191.09 1021,-1191.09 596,-1191.09 596,-1191.09 590,-1191.09 584,-1185.09 584,-1179.09 584,-1179.09 584,-869.68 584,-869.68 584,-863.68 590,-857.68 596,-857.68"/>
<text text-anchor="middle" x="808.5" y="-1173.79" font-family="Helvetica Bold" font-size="14.00">🖥 &#160;Frontend &#160;(React 19 + TypeScript)</text>
</g>
<g id="clust4" class="cluster">
<title>cluster_be</title>
<path fill="#eafaf1" stroke="#1e8449" d="M20,-8C20,-8 961,-8 961,-8 967,-8 973,-14 973,-20 973,-20 973,-814.93 973,-814.93 973,-820.93 967,-826.93 961,-826.93 961,-826.93 20,-826.93 20,-826.93 14,-826.93 8,-820.93 8,-814.93 8,-814.93 8,-20 8,-20 8,-14 14,-8 20,-8"/>
<text text-anchor="middle" x="490.5" y="-809.63" font-family="Helvetica Bold" font-size="14.00">☕ &#160;Backend &#160;(Spring Boot 3.4)</text>
</g>
<g id="clust5" class="cluster">
<title>cluster_sec</title>
<path fill="#d5f5e3" stroke="#58d68d" d="M531,-690.46C531,-690.46 848,-690.46 848,-690.46 854,-690.46 860,-696.46 860,-702.46 860,-702.46 860,-768.18 860,-768.18 860,-774.18 854,-780.18 848,-780.18 848,-780.18 531,-780.18 531,-780.18 525,-780.18 519,-774.18 519,-768.18 519,-768.18 519,-702.46 519,-702.46 519,-696.46 525,-690.46 531,-690.46"/>
<text text-anchor="middle" x="689.5" y="-764.78" font-family="Helvetica Bold" font-size="12.00">Security Layer</text>
</g>
<g id="clust6" class="cluster">
<title>cluster_ctl</title>
<path fill="#d5f5e3" stroke="#58d68d" d="M359,-572.99C359,-572.99 836,-572.99 836,-572.99 842,-572.99 848,-578.99 848,-584.99 848,-584.99 848,-648.46 848,-648.46 848,-654.46 842,-660.46 836,-660.46 836,-660.46 359,-660.46 359,-660.46 353,-660.46 347,-654.46 347,-648.46 347,-648.46 347,-584.99 347,-584.99 347,-578.99 353,-572.99 359,-572.99"/>
<text text-anchor="middle" x="597.5" y="-645.06" font-family="Helvetica Bold" font-size="12.00">Controller Layer</text>
</g>
<g id="clust8" class="cluster">
<title>cluster_svc</title>
<path fill="#d5f5e3" stroke="#58d68d" d="M381,-455.52C381,-455.52 941,-455.52 941,-455.52 947,-455.52 953,-461.52 953,-467.52 953,-467.52 953,-530.99 953,-530.99 953,-536.99 947,-542.99 941,-542.99 941,-542.99 381,-542.99 381,-542.99 375,-542.99 369,-536.99 369,-530.99 369,-530.99 369,-467.52 369,-467.52 369,-461.52 375,-455.52 381,-455.52"/>
<text text-anchor="middle" x="661" y="-527.59" font-family="Helvetica Bold" font-size="12.00">Service Layer</text>
</g>
<g id="clust10" class="cluster">
<title>cluster_core</title>
<path fill="#fef9e7" stroke="#e67e22" d="M40,-28C40,-28 164,-28 164,-28 170,-28 176,-34 176,-40 176,-40 176,-384.61 176,-384.61 176,-390.61 170,-396.61 164,-396.61 164,-396.61 40,-396.61 40,-396.61 34,-396.61 28,-390.61 28,-384.61 28,-384.61 28,-40 28,-40 28,-34 34,-28 40,-28"/>
<text text-anchor="middle" x="102" y="-381.21" font-family="Helvetica Bold" font-size="12.00">Color Analysis Core</text>
</g>
<g id="clust11" class="cluster">
<title>cluster_repo</title>
<path fill="#d5f5e3" stroke="#58d68d" d="M214,-311.37C214,-311.37 941,-311.37 941,-311.37 947,-311.37 953,-317.37 953,-323.37 953,-323.37 953,-380.12 953,-380.12 953,-386.12 947,-392.12 941,-392.12 941,-392.12 214,-392.12 214,-392.12 208,-392.12 202,-386.12 202,-380.12 202,-380.12 202,-323.37 202,-323.37 202,-317.37 208,-311.37 214,-311.37"/>
<text text-anchor="middle" x="577.5" y="-376.72" font-family="Helvetica Bold" font-size="12.00">Repository Layer</text>
</g>
<!-- Login -->
<g id="node1" class="node">
<title>Login</title>
<path fill="#ffffff" stroke="#2980b9" d="M692.34,-1139.86C692.34,-1139.86 615.66,-1139.86 615.66,-1139.86 609.66,-1139.86 603.66,-1133.86 603.66,-1127.86 603.66,-1127.86 603.66,-1115.86 603.66,-1115.86 603.66,-1109.86 609.66,-1103.86 615.66,-1103.86 615.66,-1103.86 692.34,-1103.86 692.34,-1103.86 698.34,-1103.86 704.34,-1109.86 704.34,-1115.86 704.34,-1115.86 704.34,-1127.86 704.34,-1127.86 704.34,-1133.86 698.34,-1139.86 692.34,-1139.86"/>
<text text-anchor="middle" x="654" y="-1117.4" font-family="Helvetica,sans-Serif" font-size="11.00" fill="#1a1a2e">Login / Signup</text>
</g>
<!-- authSvc -->
<g id="node4" class="node">
<title>authSvc</title>
<path fill="#ffffff" stroke="#2980b9" d="M692.34,-1027.89C692.34,-1027.89 627.66,-1027.89 627.66,-1027.89 621.66,-1027.89 615.66,-1021.89 615.66,-1015.89 615.66,-1015.89 615.66,-1003.89 615.66,-1003.89 615.66,-997.89 621.66,-991.89 627.66,-991.89 627.66,-991.89 692.34,-991.89 692.34,-991.89 698.34,-991.89 704.34,-997.89 704.34,-1003.89 704.34,-1003.89 704.34,-1015.89 704.34,-1015.89 704.34,-1021.89 698.34,-1027.89 692.34,-1027.89"/>
<text text-anchor="middle" x="660" y="-1005.44" font-family="Helvetica,sans-Serif" font-size="11.00" fill="#1a1a2e">authService</text>
</g>
<!-- Login&#45;&gt;authSvc -->
<g id="edge1" class="edge">
<title>Login&#45;&gt;authSvc</title>
<path fill="none" stroke="#7fb3d3" stroke-dasharray="5,2" d="M654.94,-1103.67C655.87,-1086.58 657.32,-1060.05 658.43,-1039.73"/>
<polygon fill="#7fb3d3" stroke="#7fb3d3" points="661.92,-1040 658.97,-1029.82 654.93,-1039.62 661.92,-1040"/>
</g>
<!-- Home -->
<g id="node2" class="node">
<title>Home</title>
<path fill="#ffffff" stroke="#2980b9" d="M857.84,-1144.34C857.84,-1144.34 766.16,-1144.34 766.16,-1144.34 760.16,-1144.34 754.16,-1138.34 754.16,-1132.34 754.16,-1132.34 754.16,-1111.37 754.16,-1111.37 754.16,-1105.37 760.16,-1099.37 766.16,-1099.37 766.16,-1099.37 857.84,-1099.37 857.84,-1099.37 863.84,-1099.37 869.84,-1105.37 869.84,-1111.37 869.84,-1111.37 869.84,-1132.34 869.84,-1132.34 869.84,-1138.34 863.84,-1144.34 857.84,-1144.34"/>
<text text-anchor="middle" x="812" y="-1124.53" font-family="Helvetica,sans-Serif" font-size="11.00" fill="#1a1a2e">Home</text>
<text text-anchor="middle" x="812" y="-1112.53" font-family="Helvetica,sans-Serif" font-size="11.00" fill="#1a1a2e">업로드 + 색상 선택</text>
</g>
<!-- analysisSvc -->
<g id="node5" class="node">
<title>analysisSvc</title>
<path fill="#ffffff" stroke="#2980b9" d="M852.97,-1032.37C852.97,-1032.37 771.03,-1032.37 771.03,-1032.37 765.03,-1032.37 759.03,-1026.37 759.03,-1020.37 759.03,-1020.37 759.03,-999.4 759.03,-999.4 759.03,-993.4 765.03,-987.4 771.03,-987.4 771.03,-987.4 852.97,-987.4 852.97,-987.4 858.97,-987.4 864.97,-993.4 864.97,-999.4 864.97,-999.4 864.97,-1020.37 864.97,-1020.37 864.97,-1026.37 858.97,-1032.37 852.97,-1032.37"/>
<text text-anchor="middle" x="812" y="-1012.56" font-family="Helvetica,sans-Serif" font-size="11.00" fill="#1a1a2e">analysisService</text>
<text text-anchor="middle" x="812" y="-1000.56" font-family="Helvetica,sans-Serif" font-size="11.00" fill="#1a1a2e">(2.5s 폴링)</text>
</g>
<!-- Home&#45;&gt;analysisSvc -->
<g id="edge2" class="edge">
<title>Home&#45;&gt;analysisSvc</title>
<path fill="none" stroke="#7fb3d3" stroke-dasharray="5,2" d="M812,-1099.13C812,-1083.39 812,-1061.83 812,-1043.95"/>
<polygon fill="#7fb3d3" stroke="#7fb3d3" points="815.5,-1044.08 812,-1034.08 808.5,-1044.08 815.5,-1044.08"/>
</g>
<!-- History -->
<g id="node3" class="node">
<title>History</title>
<path fill="#ffffff" stroke="#2980b9" d="M1000.59,-1144.34C1000.59,-1144.34 931.41,-1144.34 931.41,-1144.34 925.41,-1144.34 919.41,-1138.34 919.41,-1132.34 919.41,-1132.34 919.41,-1111.37 919.41,-1111.37 919.41,-1105.37 925.41,-1099.37 931.41,-1099.37 931.41,-1099.37 1000.59,-1099.37 1000.59,-1099.37 1006.59,-1099.37 1012.59,-1105.37 1012.59,-1111.37 1012.59,-1111.37 1012.59,-1132.34 1012.59,-1132.34 1012.59,-1138.34 1006.59,-1144.34 1000.59,-1144.34"/>
<text text-anchor="middle" x="966" y="-1124.53" font-family="Helvetica,sans-Serif" font-size="11.00" fill="#1a1a2e">History</text>
<text text-anchor="middle" x="966" y="-1112.53" font-family="Helvetica,sans-Serif" font-size="11.00" fill="#1a1a2e">분석 히스토리</text>
</g>
<!-- History&#45;&gt;analysisSvc -->
<g id="edge3" class="edge">
<title>History&#45;&gt;analysisSvc</title>
<path fill="none" stroke="#7fb3d3" stroke-dasharray="5,2" d="M935.57,-1099.13C911.61,-1082.01 878,-1058.01 851.88,-1039.36"/>
<polygon fill="#7fb3d3" stroke="#7fb3d3" points="854.03,-1036.6 843.86,-1033.63 849.96,-1042.29 854.03,-1036.6"/>
</g>
<!-- apiClient -->
<g id="node6" class="node">
<title>apiClient</title>
<path fill="#d6eaf8" stroke="#2980b9" d="M771.84,-920.4C771.84,-920.4 650.16,-920.4 650.16,-920.4 644.16,-920.4 638.16,-914.4 638.16,-908.4 638.16,-908.4 638.16,-889.68 638.16,-889.68 638.16,-883.68 644.16,-877.68 650.16,-877.68 650.16,-877.68 771.84,-877.68 771.84,-877.68 777.84,-877.68 783.84,-883.68 783.84,-889.68 783.84,-889.68 783.84,-908.4 783.84,-908.4 783.84,-914.4 777.84,-920.4 771.84,-920.4"/>
<text text-anchor="middle" x="711" y="-900.59" font-family="Helvetica,sans-Serif" font-size="11.00" fill="#1a1a2e">apiClient</text>
<text text-anchor="middle" x="711" y="-888.59" font-family="Helvetica,sans-Serif" font-size="11.00" fill="#1a1a2e">axios + JWT interceptor</text>
</g>
<!-- authSvc&#45;&gt;apiClient -->
<g id="edge4" class="edge">
<title>authSvc&#45;&gt;apiClient</title>
<path fill="none" stroke="#2980b9" d="M668.19,-991.4C675.8,-975.17 687.28,-950.65 696.45,-931.1"/>
<polygon fill="#2980b9" stroke="#2980b9" points="699.54,-932.74 700.61,-922.2 693.2,-929.77 699.54,-932.74"/>
</g>
<!-- analysisSvc&#45;&gt;apiClient -->
<g id="edge5" class="edge">
<title>analysisSvc&#45;&gt;apiClient</title>
<path fill="none" stroke="#2980b9" d="M791.8,-987.12C776.23,-970.33 754.55,-946.97 737.57,-928.67"/>
<polygon fill="#2980b9" stroke="#2980b9" points="740.53,-926.72 731.16,-921.77 735.4,-931.48 740.53,-926.72"/>
</g>
<!-- loginFilter -->
<g id="node7" class="node">
<title>loginFilter</title>
<path fill="#ffffff" stroke="#1e8449" d="M835.72,-746.31C835.72,-746.31 728.28,-746.31 728.28,-746.31 722.28,-746.31 716.28,-740.31 716.28,-734.31 716.28,-734.31 716.28,-715.59 716.28,-715.59 716.28,-709.59 722.28,-703.59 728.28,-703.59 728.28,-703.59 835.72,-703.59 835.72,-703.59 841.72,-703.59 847.72,-709.59 847.72,-715.59 847.72,-715.59 847.72,-734.31 847.72,-734.31 847.72,-740.31 841.72,-746.31 835.72,-746.31"/>
<text text-anchor="middle" x="782" y="-726.5" font-family="Helvetica,sans-Serif" font-size="11.00" fill="#1a1a2e">CustomLoginFilter</text>
<text text-anchor="middle" x="782" y="-714.5" font-family="Helvetica,sans-Serif" font-size="11.00" fill="#1a1a2e">POST /api/auth/login</text>
</g>
<!-- apiClient&#45;&gt;loginFilter -->
<g id="edge22" class="edge">
<title>apiClient&#45;&gt;loginFilter</title>
<path fill="none" stroke="#2980b9" stroke-width="2" d="M727.65,-857.68C735.72,-838.13 745.61,-814.15 754.74,-792.03"/>
<polygon fill="#2980b9" stroke="#2980b9" stroke-width="2" points="757.89,-793.56 758.47,-782.98 751.42,-790.89 757.89,-793.56"/>
<text text-anchor="middle" x="777.99" y="-836.13" font-family="Helvetica,sans-Serif" font-size="9.00" fill="#2980b9">POST /api/auth/login</text>
</g>
<!-- jwtFilter -->
<g id="node8" class="node">
<title>jwtFilter</title>
<path fill="#ffffff" stroke="#1e8449" d="M654.59,-747.43C654.59,-747.43 543.41,-747.43 543.41,-747.43 537.41,-747.43 531.41,-741.43 531.41,-735.43 531.41,-735.43 531.41,-714.46 531.41,-714.46 531.41,-708.46 537.41,-702.46 543.41,-702.46 543.41,-702.46 654.59,-702.46 654.59,-702.46 660.59,-702.46 666.59,-708.46 666.59,-714.46 666.59,-714.46 666.59,-735.43 666.59,-735.43 666.59,-741.43 660.59,-747.43 654.59,-747.43"/>
<text text-anchor="middle" x="599" y="-727.62" font-family="Helvetica,sans-Serif" font-size="11.00" fill="#1a1a2e">JwtAuthorizationFilter</text>
<text text-anchor="middle" x="599" y="-715.62" font-family="Helvetica,sans-Serif" font-size="11.00" fill="#1a1a2e">모든 요청</text>
</g>
<!-- apiClient&#45;&gt;jwtFilter -->
<g id="edge23" class="edge">
<title>apiClient&#45;&gt;jwtFilter</title>
<path fill="none" stroke="#2980b9" stroke-width="2" d="M683.44,-877.26C663.58,-862.27 640.25,-844.68 640.25,-844.68 640.25,-844.68 622.98,-794.96 610.79,-759.87"/>
<polygon fill="#2980b9" stroke="#2980b9" stroke-width="2" points="614.15,-758.88 607.56,-750.58 607.53,-761.18 614.15,-758.88"/>
<text text-anchor="middle" x="681.12" y="-836.13" font-family="Helvetica,sans-Serif" font-size="9.00" fill="#2980b9">REST + JWT Bearer</text>
</g>
<!-- authCtrl -->
<g id="node9" class="node">
<title>authCtrl</title>
<path fill="#ffffff" stroke="#1e8449" d="M823.72,-627.71C823.72,-627.71 740.28,-627.71 740.28,-627.71 734.28,-627.71 728.28,-621.71 728.28,-615.71 728.28,-615.71 728.28,-596.99 728.28,-596.99 728.28,-590.99 734.28,-584.99 740.28,-584.99 740.28,-584.99 823.72,-584.99 823.72,-584.99 829.72,-584.99 835.72,-590.99 835.72,-596.99 835.72,-596.99 835.72,-615.71 835.72,-615.71 835.72,-621.71 829.72,-627.71 823.72,-627.71"/>
<text text-anchor="middle" x="782" y="-607.9" font-family="Helvetica,sans-Serif" font-size="11.00" fill="#1a1a2e">AuthController</text>
<text text-anchor="middle" x="782" y="-595.9" font-family="Helvetica,sans-Serif" font-size="11.00" fill="#1a1a2e">/api/auth/signup</text>
</g>
<!-- loginFilter&#45;&gt;authCtrl -->
<g id="edge8" class="edge">
<title>loginFilter&#45;&gt;authCtrl</title>
<path fill="none" stroke="#1e8449" d="M782,-703.1C782,-685.36 782,-659.59 782,-639.26"/>
<polygon fill="#1e8449" stroke="#1e8449" points="785.5,-639.53 782,-629.53 778.5,-639.53 785.5,-639.53"/>
</g>
<!-- missionCtrl -->
<g id="node10" class="node">
<title>missionCtrl</title>
<path fill="#ffffff" stroke="#1e8449" d="M666.47,-627.71C666.47,-627.71 545.53,-627.71 545.53,-627.71 539.53,-627.71 533.53,-621.71 533.53,-615.71 533.53,-615.71 533.53,-596.99 533.53,-596.99 533.53,-590.99 539.53,-584.99 545.53,-584.99 545.53,-584.99 666.47,-584.99 666.47,-584.99 672.47,-584.99 678.47,-590.99 678.47,-596.99 678.47,-596.99 678.47,-615.71 678.47,-615.71 678.47,-621.71 672.47,-627.71 666.47,-627.71"/>
<text text-anchor="middle" x="606" y="-607.9" font-family="Helvetica,sans-Serif" font-size="11.00" fill="#1a1a2e">MissionImageController</text>
<text text-anchor="middle" x="606" y="-595.9" font-family="Helvetica,sans-Serif" font-size="11.00" fill="#1a1a2e">/api/images/**</text>
</g>
<!-- jwtFilter&#45;&gt;missionCtrl -->
<g id="edge9" class="edge">
<title>jwtFilter&#45;&gt;missionCtrl</title>
<path fill="none" stroke="#1e8449" d="M600.32,-702.01C601.38,-684.34 602.88,-659.24 604.08,-639.33"/>
<polygon fill="#1e8449" stroke="#1e8449" points="607.56,-639.71 604.67,-629.52 600.58,-639.29 607.56,-639.71"/>
</g>
<!-- analysisCtrl -->
<g id="node11" class="node">
<title>analysisCtrl</title>
<path fill="#ffffff" stroke="#1e8449" d="M471.34,-627.71C471.34,-627.71 370.66,-627.71 370.66,-627.71 364.66,-627.71 358.66,-621.71 358.66,-615.71 358.66,-615.71 358.66,-596.99 358.66,-596.99 358.66,-590.99 364.66,-584.99 370.66,-584.99 370.66,-584.99 471.34,-584.99 471.34,-584.99 477.34,-584.99 483.34,-590.99 483.34,-596.99 483.34,-596.99 483.34,-615.71 483.34,-615.71 483.34,-621.71 477.34,-627.71 471.34,-627.71"/>
<text text-anchor="middle" x="421" y="-607.9" font-family="Helvetica,sans-Serif" font-size="11.00" fill="#1a1a2e">AnalysisController</text>
<text text-anchor="middle" x="421" y="-595.9" font-family="Helvetica,sans-Serif" font-size="11.00" fill="#1a1a2e">/api/analysis/history</text>
</g>
<!-- jwtFilter&#45;&gt;analysisCtrl -->
<g id="edge10" class="edge">
<title>jwtFilter&#45;&gt;analysisCtrl</title>
<path fill="none" stroke="#1e8449" d="M565.52,-702.01C536.22,-682.82 493.56,-654.88 462.18,-634.33"/>
<polygon fill="#1e8449" stroke="#1e8449" points="464.38,-631.58 454.1,-629.03 460.55,-637.44 464.38,-631.58"/>
</g>
<!-- userSvc -->
<g id="node12" class="node">
<title>userSvc</title>
<path fill="#ffffff" stroke="#1e8449" d="M797.47,-506.88C797.47,-506.88 730.53,-506.88 730.53,-506.88 724.53,-506.88 718.53,-500.88 718.53,-494.88 718.53,-494.88 718.53,-482.88 718.53,-482.88 718.53,-476.88 724.53,-470.88 730.53,-470.88 730.53,-470.88 797.47,-470.88 797.47,-470.88 803.47,-470.88 809.47,-476.88 809.47,-482.88 809.47,-482.88 809.47,-494.88 809.47,-494.88 809.47,-500.88 803.47,-506.88 797.47,-506.88"/>
<text text-anchor="middle" x="764" y="-484.43" font-family="Helvetica,sans-Serif" font-size="11.00" fill="#1a1a2e">UserService</text>
</g>
<!-- authCtrl&#45;&gt;userSvc -->
<g id="edge11" class="edge">
<title>authCtrl&#45;&gt;userSvc</title>
<path fill="none" stroke="#1e8449" d="M778.78,-584.71C775.91,-566.27 771.67,-539.08 768.47,-518.54"/>
<polygon fill="#1e8449" stroke="#1e8449" points="771.95,-518.16 766.95,-508.82 765.03,-519.24 771.95,-518.16"/>
</g>
<!-- missionSvc -->
<g id="node13" class="node">
<title>missionSvc</title>
<path fill="#ffffff" stroke="#1e8449" d="M656.84,-506.88C656.84,-506.88 577.16,-506.88 577.16,-506.88 571.16,-506.88 565.16,-500.88 565.16,-494.88 565.16,-494.88 565.16,-482.88 565.16,-482.88 565.16,-476.88 571.16,-470.88 577.16,-470.88 577.16,-470.88 656.84,-470.88 656.84,-470.88 662.84,-470.88 668.84,-476.88 668.84,-482.88 668.84,-482.88 668.84,-494.88 668.84,-494.88 668.84,-500.88 662.84,-506.88 656.84,-506.88"/>
<text text-anchor="middle" x="617" y="-484.43" font-family="Helvetica,sans-Serif" font-size="11.00" fill="#1a1a2e">MissionService</text>
</g>
<!-- missionCtrl&#45;&gt;missionSvc -->
<g id="edge12" class="edge">
<title>missionCtrl&#45;&gt;missionSvc</title>
<path fill="none" stroke="#1e8449" d="M607.97,-584.71C609.72,-566.27 612.31,-539.08 614.27,-518.54"/>
<polygon fill="#1e8449" stroke="#1e8449" points="617.73,-519.12 615.19,-508.83 610.76,-518.46 617.73,-519.12"/>
</g>
<!-- colorSvc -->
<g id="node15" class="node">
<title>colorSvc</title>
<path fill="#ffffff" stroke="#1e8449" d="M502.84,-510.24C502.84,-510.24 393.16,-510.24 393.16,-510.24 387.16,-510.24 381.16,-504.24 381.16,-498.24 381.16,-498.24 381.16,-479.52 381.16,-479.52 381.16,-473.52 387.16,-467.52 393.16,-467.52 393.16,-467.52 502.84,-467.52 502.84,-467.52 508.84,-467.52 514.84,-473.52 514.84,-479.52 514.84,-479.52 514.84,-498.24 514.84,-498.24 514.84,-504.24 508.84,-510.24 502.84,-510.24"/>
<text text-anchor="middle" x="448" y="-490.43" font-family="Helvetica,sans-Serif" font-size="11.00" fill="#1a1a2e">ColorAnalysisService</text>
<text text-anchor="middle" x="448" y="-478.43" font-family="Helvetica,sans-Serif" font-size="11.00" fill="#1a1a2e">@Async</text>
</g>
<!-- missionCtrl&#45;&gt;colorSvc -->
<g id="edge13" class="edge">
<title>missionCtrl&#45;&gt;colorSvc</title>
<path fill="none" stroke="#1e8449" d="M577.75,-584.71C552.07,-565.94 513.99,-538.11 485.72,-517.44"/>
<polygon fill="#1e8449" stroke="#1e8449" points="487.9,-514.7 477.76,-511.63 483.77,-520.35 487.9,-514.7"/>
</g>
<!-- analysisCtrl&#45;&gt;missionSvc -->
<g id="edge14" class="edge">
<title>analysisCtrl&#45;&gt;missionSvc</title>
<path fill="none" stroke="#1e8449" d="M460.63,-584.59C495.24,-566.44 540,-542.99 540,-542.99 540,-542.99 562.06,-527.78 582.56,-513.63"/>
<polygon fill="#1e8449" stroke="#1e8449" points="584.3,-516.69 590.54,-508.13 580.32,-510.93 584.3,-516.69"/>
</g>
<!-- userRepo -->
<g id="node19" class="node">
<title>userRepo</title>
<path fill="#ffffff" stroke="#1e8449" d="M929.34,-359.37C929.34,-359.37 846.66,-359.37 846.66,-359.37 840.66,-359.37 834.66,-353.37 834.66,-347.37 834.66,-347.37 834.66,-335.37 834.66,-335.37 834.66,-329.37 840.66,-323.37 846.66,-323.37 846.66,-323.37 929.34,-323.37 929.34,-323.37 935.34,-323.37 941.34,-329.37 941.34,-335.37 941.34,-335.37 941.34,-347.37 941.34,-347.37 941.34,-353.37 935.34,-359.37 929.34,-359.37"/>
<text text-anchor="middle" x="888" y="-336.92" font-family="Helvetica,sans-Serif" font-size="11.00" fill="#1a1a2e">UserRepository</text>
</g>
<!-- userSvc&#45;&gt;userRepo -->
<g id="edge17" class="edge">
<title>userSvc&#45;&gt;userRepo</title>
<path fill="none" stroke="#58d68d" stroke-dasharray="5,2" d="M778.71,-470.62C800.34,-445.24 840.87,-397.68 866.03,-368.15"/>
<polygon fill="#58d68d" stroke="#58d68d" points="868.5,-370.64 872.33,-360.76 863.18,-366.1 868.5,-370.64"/>
</g>
<!-- s3Svc -->
<g id="node14" class="node">
<title>s3Svc</title>
<path fill="#ffffff" stroke="#1e8449" d="M928.59,-506.88C928.59,-506.88 871.41,-506.88 871.41,-506.88 865.41,-506.88 859.41,-500.88 859.41,-494.88 859.41,-494.88 859.41,-482.88 859.41,-482.88 859.41,-476.88 865.41,-470.88 871.41,-470.88 871.41,-470.88 928.59,-470.88 928.59,-470.88 934.59,-470.88 940.59,-476.88 940.59,-482.88 940.59,-482.88 940.59,-494.88 940.59,-494.88 940.59,-500.88 934.59,-506.88 928.59,-506.88"/>
<text text-anchor="middle" x="900" y="-484.43" font-family="Helvetica,sans-Serif" font-size="11.00" fill="#1a1a2e">S3Service</text>
</g>
<!-- missionSvc&#45;&gt;s3Svc -->
<g id="edge15" class="edge">
<title>missionSvc&#45;&gt;s3Svc</title>
<path fill="none" stroke="#1e8449" d="M643.07,-507.2C665.41,-522.9 694,-542.99 694,-542.99 694,-542.99 719,-557.99 719,-557.99 719,-557.99 809,-557.99 809,-557.99 809,-557.99 834,-542.99 834,-542.99 834,-542.99 851.77,-528.42 868.87,-514.4"/>
<polygon fill="#1e8449" stroke="#1e8449" points="870.97,-517.21 876.48,-508.16 866.53,-511.79 870.97,-517.21"/>
</g>
<!-- reqRepo -->
<g id="node20" class="node">
<title>reqRepo</title>
<path fill="#ffffff" stroke="#1e8449" d="M772.84,-359.37C772.84,-359.37 633.16,-359.37 633.16,-359.37 627.16,-359.37 621.16,-353.37 621.16,-347.37 621.16,-347.37 621.16,-335.37 621.16,-335.37 621.16,-329.37 627.16,-323.37 633.16,-323.37 633.16,-323.37 772.84,-323.37 772.84,-323.37 778.84,-323.37 784.84,-329.37 784.84,-335.37 784.84,-335.37 784.84,-347.37 784.84,-347.37 784.84,-353.37 778.84,-359.37 772.84,-359.37"/>
<text text-anchor="middle" x="703" y="-336.92" font-family="Helvetica,sans-Serif" font-size="11.00" fill="#1a1a2e">AnalysisRequestRepository</text>
</g>
<!-- missionSvc&#45;&gt;reqRepo -->
<g id="edge18" class="edge">
<title>missionSvc&#45;&gt;reqRepo</title>
<path fill="none" stroke="#58d68d" stroke-dasharray="5,2" d="M627.2,-470.62C642.01,-445.57 669.59,-398.9 687.08,-369.31"/>
<polygon fill="#58d68d" stroke="#58d68d" points="689.97,-371.3 692.04,-360.91 683.94,-367.74 689.97,-371.3"/>
</g>
<!-- S3store -->
<g id="node24" class="node">
<title>S3store</title>
<path fill="lightgrey" stroke="none" d="M1092.59,-391.77C1092.59,-391.77 1005.41,-391.77 1005.41,-391.77 999.41,-391.77 993.41,-385.77 993.41,-379.77 993.41,-379.77 993.41,-302.97 993.41,-302.97 993.41,-296.97 999.41,-290.97 1005.41,-290.97 1005.41,-290.97 1092.59,-290.97 1092.59,-290.97 1098.59,-290.97 1104.59,-296.97 1104.59,-302.97 1104.59,-302.97 1104.59,-379.77 1104.59,-379.77 1104.59,-385.77 1098.59,-391.77 1092.59,-391.77"/>
<image xlink:href="images/s3_icon.png" width="84px" height="100.8px" preserveAspectRatio="xMinYMin meet" x="1007" y="-391.77"/>
<text text-anchor="middle" x="1049" y="-294.57" font-family="Helvetica,sans-Serif" font-size="12.00" fill="#1a1a2e">이미지 원본 저장</text>
</g>
<!-- s3Svc&#45;&gt;S3store -->
<g id="edge24" class="edge">
<title>s3Svc&#45;&gt;S3store</title>
<path fill="none" stroke="#ff9900" stroke-width="2" d="M917.68,-470.62C935.4,-453.31 963.68,-425.69 989.47,-400.51"/>
<polygon fill="#ff9900" stroke="#ff9900" stroke-width="2" points="991.59,-403.33 996.3,-393.84 986.7,-398.32 991.59,-403.33"/>
<text text-anchor="middle" x="981.03" y="-425.97" font-family="Helvetica,sans-Serif" font-size="9.00" fill="#ff9900">PutObject</text>
</g>
<!-- kmeans -->
<g id="node16" class="node">
<title>kmeans</title>
<path fill="#ffffff" stroke="#e67e22" d="M151.97,-363.86C151.97,-363.86 52.03,-363.86 52.03,-363.86 46.03,-363.86 40.03,-357.86 40.03,-351.86 40.03,-351.86 40.03,-330.88 40.03,-330.88 40.03,-324.88 46.03,-318.88 52.03,-318.88 52.03,-318.88 151.97,-318.88 151.97,-318.88 157.97,-318.88 163.97,-324.88 163.97,-330.88 163.97,-330.88 163.97,-351.86 163.97,-351.86 163.97,-357.86 157.97,-363.86 151.97,-363.86"/>
<text text-anchor="middle" x="102" y="-344.05" font-family="Helvetica,sans-Serif" font-size="11.00" fill="#1a1a2e">K&#45;means &#160;K=8</text>
<text text-anchor="middle" x="102" y="-332.05" font-family="Helvetica,sans-Serif" font-size="11.00" fill="#1a1a2e">Lab 공간 클러스터링</text>
</g>
<!-- colorSvc&#45;&gt;kmeans -->
<g id="edge16" class="edge">
<title>colorSvc&#45;&gt;kmeans</title>
<path fill="none" stroke="#e67e22" stroke-width="1.5" d="M389.13,-467.05C312.99,-440.12 190,-396.61 190,-396.61 190,-396.61 169.29,-383.84 147.97,-370.7"/>
<polygon fill="#e67e22" stroke="#e67e22" stroke-width="1.5" points="149.82,-367.73 139.47,-365.46 146.15,-373.69 149.82,-367.73"/>
</g>
<!-- colorSvc&#45;&gt;reqRepo -->
<g id="edge21" class="edge">
<title>colorSvc&#45;&gt;reqRepo</title>
<path fill="none" stroke="#58d68d" stroke-dasharray="5,2" d="M484.54,-467.03C531.72,-440.11 613.59,-393.39 662.59,-365.43"/>
<polygon fill="#58d68d" stroke="#58d68d" points="664.25,-368.51 671.21,-360.51 660.79,-362.43 664.25,-368.51"/>
</g>
<!-- resultRepo -->
<g id="node21" class="node">
<title>resultRepo</title>
<path fill="#ffffff" stroke="#1e8449" d="M355.97,-359.37C355.97,-359.37 226.03,-359.37 226.03,-359.37 220.03,-359.37 214.03,-353.37 214.03,-347.37 214.03,-347.37 214.03,-335.37 214.03,-335.37 214.03,-329.37 220.03,-323.37 226.03,-323.37 226.03,-323.37 355.97,-323.37 355.97,-323.37 361.97,-323.37 367.97,-329.37 367.97,-335.37 367.97,-335.37 367.97,-347.37 367.97,-347.37 367.97,-353.37 361.97,-359.37 355.97,-359.37"/>
<text text-anchor="middle" x="291" y="-336.92" font-family="Helvetica,sans-Serif" font-size="11.00" fill="#1a1a2e">AnalysisResultRepository</text>
</g>
<!-- colorSvc&#45;&gt;resultRepo -->
<g id="edge19" class="edge">
<title>colorSvc&#45;&gt;resultRepo</title>
<path fill="none" stroke="#58d68d" stroke-dasharray="5,2" d="M425.51,-467.03C397.11,-440.71 348.3,-395.48 317.94,-367.34"/>
<polygon fill="#58d68d" stroke="#58d68d" points="320.35,-364.8 310.64,-360.57 315.59,-369.94 320.35,-364.8"/>
</g>
<!-- colorRepo -->
<g id="node22" class="node">
<title>colorRepo</title>
<path fill="#ffffff" stroke="#1e8449" d="M559.59,-359.37C559.59,-359.37 430.41,-359.37 430.41,-359.37 424.41,-359.37 418.41,-353.37 418.41,-347.37 418.41,-347.37 418.41,-335.37 418.41,-335.37 418.41,-329.37 424.41,-323.37 430.41,-323.37 430.41,-323.37 559.59,-323.37 559.59,-323.37 565.59,-323.37 571.59,-329.37 571.59,-335.37 571.59,-335.37 571.59,-347.37 571.59,-347.37 571.59,-353.37 565.59,-359.37 559.59,-359.37"/>
<text text-anchor="middle" x="495" y="-336.92" font-family="Helvetica,sans-Serif" font-size="11.00" fill="#1a1a2e">DetectedColorRepository</text>
</g>
<!-- colorSvc&#45;&gt;colorRepo -->
<g id="edge20" class="edge">
<title>colorSvc&#45;&gt;colorRepo</title>
<path fill="none" stroke="#58d68d" stroke-dasharray="5,2" d="M454.73,-467.03C462.94,-441.62 476.85,-398.56 485.98,-370.3"/>
<polygon fill="#58d68d" stroke="#58d68d" points="489.24,-371.58 488.99,-360.98 482.58,-369.42 489.24,-371.58"/>
</g>
<!-- lch -->
<g id="node17" class="node">
<title>lch</title>
<path fill="#ffffff" stroke="#e67e22" d="M139.97,-210.45C139.97,-210.45 64.03,-210.45 64.03,-210.45 58.03,-210.45 52.03,-204.45 52.03,-198.45 52.03,-198.45 52.03,-177.49 52.03,-177.49 52.03,-171.49 58.03,-165.49 64.03,-165.49 64.03,-165.49 139.97,-165.49 139.97,-165.49 145.97,-165.49 151.97,-171.49 151.97,-177.49 151.97,-177.49 151.97,-198.45 151.97,-198.45 151.97,-204.45 145.97,-210.45 139.97,-210.45"/>
<text text-anchor="middle" x="102" y="-190.65" font-family="Helvetica,sans-Serif" font-size="11.00" fill="#1a1a2e">LCH Hue 각도</text>
<text text-anchor="middle" x="102" y="-176.4" font-family="Helvetica,sans-Serif" font-size="11.00" fill="#1a1a2e">atan2(b, a)</text>
</g>
<!-- kmeans&#45;&gt;lch -->
<g id="edge6" class="edge">
<title>kmeans&#45;&gt;lch</title>
<path fill="none" stroke="#e67e22" stroke-width="1.5" d="M102,-318.68C102,-293.61 102,-252.04 102,-222.74"/>
<polygon fill="#e67e22" stroke="#e67e22" stroke-width="1.5" points="105.5,-222.89 102,-212.89 98.5,-222.89 105.5,-222.89"/>
</g>
<!-- colorEnum -->
<g id="node18" class="node">
<title>colorEnum</title>
<path fill="#ffffff" stroke="#e67e22" d="M146.72,-84.97C146.72,-84.97 57.28,-84.97 57.28,-84.97 51.28,-84.97 45.28,-78.97 45.28,-72.97 45.28,-72.97 45.28,-52 45.28,-52 45.28,-46 51.28,-40 57.28,-40 57.28,-40 146.72,-40 146.72,-40 152.72,-40 158.72,-46 158.72,-52 158.72,-52 158.72,-72.97 158.72,-72.97 158.72,-78.97 152.72,-84.97 146.72,-84.97"/>
<text text-anchor="middle" x="102" y="-65.16" font-family="Helvetica,sans-Serif" font-size="11.00" fill="#1a1a2e">ColorType Enum</text>
<text text-anchor="middle" x="102" y="-53.16" font-family="Helvetica,sans-Serif" font-size="11.00" fill="#1a1a2e">유사도 계산</text>
</g>
<!-- lch&#45;&gt;colorEnum -->
<g id="edge7" class="edge">
<title>lch&#45;&gt;colorEnum</title>
<path fill="none" stroke="#e67e22" stroke-width="1.5" d="M102,-165.18C102,-146.31 102,-118.72 102,-97.03"/>
<polygon fill="#e67e22" stroke="#e67e22" stroke-width="1.5" points="105.5,-97.33 102,-87.33 98.5,-97.33 105.5,-97.33"/>
</g>
<!-- DB -->
<g id="node23" class="node">
<title>DB</title>
<path fill="lightgrey" stroke="none" d="M1081.4,-223.97C1081.4,-223.97 1004.6,-223.97 1004.6,-223.97 998.6,-223.97 992.6,-217.97 992.6,-211.97 992.6,-211.97 992.6,-163.97 992.6,-163.97 992.6,-157.97 998.6,-151.97 1004.6,-151.97 1004.6,-151.97 1081.4,-151.97 1081.4,-151.97 1087.4,-151.97 1093.4,-157.97 1093.4,-163.97 1093.4,-163.97 1093.4,-211.97 1093.4,-211.97 1093.4,-217.97 1087.4,-223.97 1081.4,-223.97"/>
<image xlink:href="images/mysql_icon_sm.png" width="100.8px" height="52.1379px" preserveAspectRatio="xMinYMin meet" x="992.6" y="-214.039"/>
<text text-anchor="middle" x="1043" y="-153.32" font-family="Helvetica,sans-Serif" font-size="12.00" fill="#1a1a2e">findcolor DB</text>
</g>
<!-- userRepo&#45;&gt;DB -->
<g id="edge25" class="edge">
<title>userRepo&#45;&gt;DB</title>
<path fill="none" stroke="#8e44ad" stroke-width="1.5" d="M905.78,-323C928.31,-300.99 967.93,-262.29 998.83,-232.12"/>
<polygon fill="#8e44ad" stroke="#8e44ad" stroke-width="1.5" points="1000.96,-234.93 1005.66,-225.44 996.06,-229.92 1000.96,-234.93"/>
</g>
<!-- reqRepo&#45;&gt;DB -->
<g id="edge26" class="edge">
<title>reqRepo&#45;&gt;DB</title>
<path fill="none" stroke="#8e44ad" stroke-width="1.5" d="M740.72,-322.95C771.53,-308.73 810,-290.97 810,-290.97 810,-290.97 912.5,-246.1 981.53,-215.88"/>
<polygon fill="#8e44ad" stroke="#8e44ad" stroke-width="1.5" points="982.89,-219.1 990.65,-211.89 980.09,-212.69 982.89,-219.1"/>
</g>
<!-- resultRepo&#45;&gt;DB -->
<g id="edge27" class="edge">
<title>resultRepo&#45;&gt;DB</title>
<path fill="none" stroke="#8e44ad" stroke-width="1.5" d="M326.96,-322.95C356.33,-308.73 393,-290.97 393,-290.97 393,-290.97 818.77,-224.16 981.12,-198.68"/>
<polygon fill="#8e44ad" stroke="#8e44ad" stroke-width="1.5" points="981.23,-202.21 990.56,-197.2 980.14,-195.29 981.23,-202.21"/>
</g>
<!-- colorRepo&#45;&gt;DB -->
<g id="edge28" class="edge">
<title>colorRepo&#45;&gt;DB</title>
<path fill="none" stroke="#8e44ad" stroke-width="1.5" d="M530.61,-322.95C559.69,-308.73 596,-290.97 596,-290.97 596,-290.97 858.6,-231.05 981.25,-203.06"/>
<polygon fill="#8e44ad" stroke="#8e44ad" stroke-width="1.5" points="981.84,-206.52 990.81,-200.88 980.28,-199.69 981.84,-206.52"/>
</g>
</g>
</svg>
